<svg viewBox="0 0 42 42" xmlns="http://www.w3.org/2000/svg"><path clip-rule="evenodd" d="M3.5 20.8889C3.5 11.2853 11.2853 3.5 20.8889 3.5C30.4925 3.5 38.2778 11.2853 38.2778 20.8889C38.2778 30.4925 30.4925 38.2778 20.8889 38.2778C11.2853 38.2778 3.5 30.4925 3.5 20.8889ZM20.8889 0.5C9.62842 0.5 0.5 9.62842 0.5 20.8889C0.5 32.1494 9.62842 41.2778 20.8889 41.2778C32.1494 41.2778 41.2778 32.1494 41.2778 20.8889C41.2778 9.62842 32.1494 0.5 20.8889 0.5ZM31.9946 15.2358C32.5544 14.6251 32.5132 13.6763 31.9025 13.1165C31.2918 12.5567 30.3429 12.598 29.7832 13.2086L18.6195 25.3871L13.0607 19.8282C12.4749 19.2424 11.5251 19.2424 10.9393 19.8282C10.3536 20.414 10.3536 21.3638 10.9393 21.9496L17.606 28.6162C17.8953 28.9055 18.2902 29.0641 18.6993 29.0552C19.1083 29.0463 19.4959 28.8707 19.7724 28.5691L31.9946 15.2358Z"/></svg>