<svg xmlns="http://www.w3.org/2000/svg" width="229" height="28"><path fill="#FFF59D" d="M208.131 12.9c1.871 1.235 2.789 2.47.577 2.723.539.616.431 1.088-1.177 1.088l-.045-.002c.637.287 1.271.575 1.903.864 4.244-.174 8.499-.236 12.754-.186.025.002 10.745 4.806 5.329 4.806-3.265-.094-6.533-.124-9.798-.091.595.624.473 1.085-1.187 1.085-8.129-.256-16.275-.107-24.356.445l-12.78 1.196c-4.521.485-9.062.892-13.616 1.222-14.938 1.495-30.081 2.132-45.224 1.901-14.985-.406-29.816-2.198-44.648-3.435-7.268-.736-14.607-1.186-21.972-1.348-7.401-.425-14.86-.313-22.217.332-2.475-.436-4.757-1.199-6.68-2.234-3.922-1.607-7.784-3.453-11.522-5.3.076.039-1.042-.477-2.287-1.165-.777-.362-1.549-.728-2.316-1.099.092.053-8.138-3.705-3.396-3.865l.844-.026c-1.491-.917-3.083-2.117-1.913-2.542-2.725-1.371-6.568-3.628-2.895-3.754l1.809-.05c-2.146-1.279-3.539-2.558-.794-2.647 2.029-.059 4.059-.107 6.089-.145.223-.053.513-.087.879-.098 9.822-.585 19.711-.585 29.533 0l15.35.787c9.385.489 18.746 1.126 28.127 1.71 8.481.376 16.965.741 25.442 1.188h-1.528c16.164-.707 32.115-2.103 48.218-3.201 3.117-.205 6.356-.372 9.411-.558 5.392-.454 10.837-.601 16.265-.443 4.717-.142 9.45-.04 14.149.305 1.182.183 2.323.448 3.402.791 2.206.051 4.41.154 6.607.308 2.257.239 4.367.827 6.117 1.706 3.579 1.361 7.035 2.795 10.399 4.302-.52-.254 8.442 3.83 3.548 3.83-3.568-.107-7.139-.137-10.706-.089.618 1.071-.485 1.667-2.267 1.667-1.147-.001-2.29.005-3.43.018zm-182.297-6.256l-.749-.374c-.071-.035-1.287-.742-2.171-1.486-.86-.436-2.106-1.107-2.959-1.741-1.822.069-3.642.159-5.46.269-3.237.1-.587 1.912 2.035 3.342 3.1-.061 6.203-.064 9.304-.01zm196.308 10.744l.003.001.043.02-.045-.021z"/></svg>