<svg xmlns="http://www.w3.org/2000/svg" viewBox="0 0 48 48" width="20" height="20"><path fill="#1e88e5" d="M38.59 39c-.535.93-.298 1.68-1.195 2.197-.897.518-1.93.803-3.005.803H13.61c-1.074 0-2.106-.285-3.004-.802-.898-.517-.661-1.268-1.196-2.198l7.67-9h13.84l7.67 9z"/><path fill="#fbc02d" d="M27.463 6.999c1.073-.002 2.104-.716 3.001-.198.897.519 1.66 1.27 2.197 2.201l10.39 17.996c.537.93.807 1.967.808 3.002.001 1.037-1.267 2.073-1.806 3.001l-11.127-3.005-6.924-11.993 3.461-11.004z"/><path fill="#e53935" d="M43.86 30c0 1.04-.27 2.07-.81 3l-3.67 6.35c-.53.78-1.21 1.4-1.99 1.85L30.92 30h12.94z"/><path fill="#4caf50" d="M5.947 33.001c-.538-.928-1.806-1.964-1.806-3 .001-1.036.27-2.073.808-3.004l10.39-17.996c.537-.93 1.3-1.682 2.196-2.2.897-.519 1.929.195 3.002.197l3.459 11.009-6.922 11.989-11.127 3.005z"/><path fill="#1565c0" d="M17.08 30l-6.47 11.2c-.78-.45-1.46-1.07-1.99-1.85L4.95 33c-.54-.93-.81-1.96-.81-3h12.94z"/><path fill="#2e7d32" d="M30.46 6.8L24 18 17.53 6.8c.78-.45 1.66-.73 2.6-.79L27.46 6c1.08 0 2.11.28 3 .8z"/></svg>