<svg xmlns="http://www.w3.org/2000/svg" viewBox="0 0 595 404"><path d="M164.427 369.431c2.74 0 4.961 2.224 4.961 4.968L169.387 404h-1.24v-29.601c0-2.058-1.665-3.726-3.72-3.726H75.1336c-2.0548 0-3.7206 1.668-3.7206 3.726L71.4126 404h-1.2403l.0005-29.601c0-2.744 2.221-4.968 4.9608-4.968h89.2934zm238.116.698c2.739 0 4.96 2.225 4.96 4.969V404h-1.24v-28.902c0-2.058-1.666-3.727-3.72-3.727h-89.294c-2.055 0-3.72 1.669-3.72 3.727V404h-1.241v-28.902c0-2.744 2.221-4.969 4.961-4.969h89.294zM595 308.929v1.243h-45.321c-2.055 0-3.721 1.668-3.721 3.727v75.006c0 2.058 1.666 3.726 3.721 3.726H595v1.242h-45.321c-2.74 0-4.961-2.224-4.961-4.968v-75.006c0-2.745 2.221-4.969 4.961-4.969l45.321-.001zm-549.6309.001c2.7398 0 4.9607 2.224 4.9607 4.969v75.006c0 2.744-2.2209 4.968-4.9607 4.968H0v-1.242h45.3691c2.0548 0 3.7206-1.668 3.7206-3.726v-75.006c0-2.059-1.6658-3.727-3.7206-3.727H0v-1.243l45.3691.001zM521.6 328.805c2.74 0 4.961 2.224 4.961 4.968v54.656c0 2.744-2.221 4.969-4.961 4.969h-89.293c-2.74 0-4.961-2.225-4.961-4.969v-54.656c0-2.744 2.221-4.968 4.961-4.968H521.6zm-238.115 19.874c2.739 0 4.96 2.225 4.96 4.969v34.781c0 2.744-2.221 4.969-4.96 4.969h-89.294c-2.739 0-4.96-2.225-4.96-4.969v-34.781c0-2.744 2.221-4.969 4.96-4.969h89.294zM521.6 330.047h-89.293c-2.055 0-3.721 1.668-3.721 3.726v54.656c0 2.058 1.666 3.727 3.721 3.727H521.6c2.055 0 3.721-1.669 3.721-3.727v-54.656c0-2.058-1.666-3.726-3.721-3.726zm-238.115 19.875h-89.294c-2.054 0-3.72 1.668-3.72 3.726v34.781c0 2.058 1.666 3.727 3.72 3.727h89.294c2.055 0 3.72-1.669 3.72-3.727v-34.781c0-2.058-1.665-3.726-3.72-3.726zm119.058-38.508c2.739 0 4.96 2.225 4.96 4.969v30.716c0 2.744-2.221 4.968-4.96 4.968h-89.294c-2.74 0-4.961-2.224-4.961-4.968v-30.716c0-2.744 2.221-4.969 4.961-4.969h89.294zm-238.116-44.718c2.74 0 4.961 2.225 4.961 4.969v74.53c0 2.744-2.221 4.969-4.961 4.969H75.1336c-2.7398 0-4.9608-2.225-4.9608-4.969v-74.53c0-2.744 2.221-4.969 4.9608-4.969h89.2934zm238.116 45.96h-89.294c-2.055 0-3.72 1.669-3.72 3.727v30.716c0 2.058 1.665 3.726 3.72 3.726h89.294c2.054 0 3.72-1.668 3.72-3.726v-30.716c0-2.058-1.666-3.727-3.72-3.727zm-238.116-44.718H75.1336c-2.0548 0-3.7206 1.669-3.7206 3.727v74.53c0 2.058 1.6658 3.727 3.7206 3.727h89.2934c2.055 0 3.72-1.669 3.72-3.727v-74.53c0-2.058-1.665-3.727-3.72-3.727zm119.058-23.601c2.739 0 4.96 2.224 4.96 4.968v74.531c0 2.744-2.221 4.969-4.96 4.969h-89.294c-2.739 0-4.96-2.225-4.96-4.969v-74.531c0-2.744 2.221-4.968 4.96-4.968h89.294zm0 1.242h-89.294c-2.054 0-3.72 1.668-3.72 3.726v74.531c0 2.058 1.666 3.726 3.72 3.726h89.294c2.055 0 3.72-1.668 3.72-3.726v-74.531c0-2.058-1.665-3.726-3.72-3.726zM521.6 284.086c2.74 0 4.961 2.225 4.961 4.969v14.906c0 2.744-2.221 4.969-4.961 4.969h-89.293c-2.74 0-4.961-2.225-4.961-4.969v-14.906c0-2.744 2.221-4.969 4.961-4.969H521.6zm0 1.243h-89.293c-2.055 0-3.721 1.668-3.721 3.726v14.906c0 2.058 1.666 3.727 3.721 3.727H521.6c2.055 0 3.721-1.669 3.721-3.727v-14.906c0-2.058-1.666-3.726-3.721-3.726zm-119.057-38.508c2.739 0 4.96 2.225 4.96 4.969v34.781c0 2.744-2.221 4.968-4.96 4.968h-89.294c-2.74 0-4.961-2.224-4.961-4.968V251.79c0-2.744 2.221-4.969 4.961-4.969h89.294zm0 1.242h-89.294c-2.055 0-3.72 1.669-3.72 3.727v34.781c0 2.058 1.665 3.726 3.72 3.726h89.294c2.054 0 3.72-1.668 3.72-3.726V251.79c0-2.058-1.666-3.727-3.72-3.727zM595 264.211v1.242l-45.321.001c-2.055 0-3.721 1.668-3.721 3.726v14.906c0 2.058 1.666 3.727 3.721 3.727l45.321-.001v1.243h-45.321c-2.74 0-4.961-2.224-4.961-4.969V269.18c0-2.744 2.221-4.968 4.961-4.968l45.321-.001zm-549.6309.001c2.7398 0 4.9607 2.224 4.9607 4.968v14.906c0 2.745-2.2209 4.969-4.9607 4.969H0v-1.243l45.3691.001c2.0548 0 3.7206-1.669 3.7206-3.727V269.18c0-2.058-1.6658-3.726-3.7206-3.726L0 265.453v-1.242l45.3691.001zm115.0689 11.944c.321 0 .617.052.888.154.272.103.505.253.7.45.195.197.348.439.459.725.111.287.166.614.166.982 0 .185-.02.31-.06.375-.039.065-.115.097-.228.097h-3.15c.02.261.066.488.139.678.073.191.169.348.288.472.119.124.26.217.424.278.164.062.345.092.543.092.199 0 .37-.023.514-.069.143-.047.269-.098.377-.154.107-.057.201-.108.282-.154.081-.047.16-.07.236-.07.103 0 .179.038.228.114l.352.447c-.135.159-.287.293-.456.4-.169.108-.345.194-.528.259-.184.064-.371.11-.561.136-.19.027-.374.04-.553.04-.354 0-.683-.059-.987-.176-.304-.118-.569-.292-.794-.522-.225-.23-.402-.515-.531-.854-.129-.34-.193-.733-.193-1.181 0-.347.056-.674.168-.981.113-.306.274-.573.484-.8.21-.227.466-.406.769-.539.303-.132.644-.199 1.024-.199zm-11.211 0c.377 0 .72.062 1.03.184.309.123.573.297.793.522.22.225.39.5.509.825.119.324.178.687.178 1.088 0 .404-.059.768-.178 1.093-.119.325-.289.601-.509.83-.22.228-.484.404-.793.526-.31.123-.653.184-1.03.184-.38 0-.726-.061-1.037-.184-.31-.122-.576-.298-.796-.526-.22-.229-.39-.505-.511-.83-.12-.325-.181-.689-.181-1.093 0-.401.061-.764.181-1.088.121-.325.291-.6.511-.825.22-.225.486-.399.796-.522.311-.122.657-.184 1.037-.184zm6.166 0c.278 0 .525.048.74.142.215.094.394.227.538.397.144.171.253.375.327.612.075.236.112.497.112.782v3.245h-1.225v-3.245c0-.311-.072-.552-.214-.723-.142-.17-.359-.256-.65-.256-.211 0-.41.048-.595.144-.185.096-.36.227-.526.393v3.687h-1.225v-5.098h.749c.159 0 .263.074.313.223l.084.403c.102-.103.211-.198.325-.286.114-.088.235-.162.362-.223.127-.062.264-.11.409-.145.146-.034.304-.052.476-.052zm-13.036-2.007c.545 0 1.041.089 1.488.266.446.177.828.424 1.146.74.317.316.564.695.739 1.135.175.441.263.925.263 1.451 0 .527-.088 1.011-.263 1.451-.175.441-.422.82-.739 1.138-.318.318-.7.565-1.146.74-.447.176-.943.264-1.488.264h-2.734v-7.185h2.734zm6.87 2.946c-.43 0-.748.145-.955.435-.206.29-.31.708-.31 1.255 0 .546.104.963.31 1.249.207.287.525.43.955.43.424 0 .737-.142.94-.427.204-.285.305-.702.305-1.252s-.101-.969-.305-1.257c-.203-.289-.516-.433-.94-.433zm-6.87-1.883h-1.394v5.058h1.394c.35 0 .665-.058.945-.173.279-.116.517-.283.714-.5.197-.217.347-.482.451-.795.105-.313.157-.666.157-1.061 0-.394-.052-.747-.157-1.06-.104-.313-.254-.579-.451-.795-.197-.217-.435-.384-.714-.5-.28-.116-.595-.174-.945-.174zm18.106 1.824c-.354 0-.632.101-.836.303-.203.202-.333.488-.389.859h2.312c0-.159-.023-.308-.067-.449-.045-.141-.112-.264-.201-.37-.089-.106-.203-.19-.34-.251-.137-.062-.297-.092-.479-.092zM521.6 199.618c2.74 0 4.961 2.225 4.961 4.969v54.656c0 2.744-2.221 4.969-4.961 4.969h-89.293c-2.74 0-4.961-2.225-4.961-4.969v-54.656c0-2.744 2.221-4.969 4.961-4.969H521.6zm0 1.243h-89.293c-2.055 0-3.721 1.668-3.721 3.726v54.656c0 2.058 1.666 3.726 3.721 3.726H521.6c2.055 0 3.721-1.668 3.721-3.726v-54.656c0-2.058-1.666-3.726-3.721-3.726zm-134.257 55.421c.377 0 .72.061 1.029.183.309.123.574.297.794.522.22.225.389.5.508.825.119.325.179.687.179 1.088 0 .404-.06.769-.179 1.093-.119.325-.288.601-.508.83-.22.228-.485.404-.794.527-.309.122-.652.183-1.029.183-.381 0-.726-.061-1.037-.183-.311-.123-.576-.299-.796-.527-.22-.229-.39-.505-.511-.83-.121-.324-.181-.689-.181-1.093 0-.401.06-.763.181-1.088.121-.325.291-.6.511-.825.22-.225.485-.399.796-.522.311-.122.656-.183 1.037-.183zm11.211 0c.321 0 .617.051.888.154.271.102.504.252.699.449.196.197.349.439.459.726.111.286.167.613.167.981 0 .185-.02.311-.06.375-.04.065-.116.097-.228.097h-3.15c.02.262.066.488.139.678.072.191.168.348.287.472.119.124.261.217.425.278.163.062.344.092.543.092.198 0 .369-.023.513-.069.144-.047.27-.098.377-.154.108-.056.202-.108.283-.154.081-.047.159-.07.236-.07.102 0 .178.038.228.115l.352.447c-.136.159-.288.292-.456.4-.169.107-.345.193-.529.258-.183.065-.37.11-.56.137-.19.026-.375.039-.553.039-.354 0-.683-.058-.988-.176-.304-.118-.568-.291-.793-.522-.225-.23-.402-.515-.531-.854-.129-.34-.194-.733-.194-1.18 0-.348.057-.675.169-.982.113-.306.274-.573.484-.8.21-.227.466-.406.769-.539.302-.132.644-.198 1.024-.198zm-18.082-2.008c.546 0 1.042.089 1.488.266.447.177.829.424 1.146.74.318.317.564.695.739 1.136.176.44.263.924.263 1.451 0 .526-.087 1.01-.263 1.45-.175.441-.421.82-.739 1.138-.317.318-.699.565-1.146.741-.446.175-.942.263-1.488.263h-2.733v-7.185h2.733zm13.037 2.008c.278 0 .524.047.739.141.215.095.395.227.538.398.144.17.253.374.328.611.074.237.111.497.111.782v3.245H394v-3.245c0-.311-.071-.552-.213-.723-.142-.17-.359-.255-.65-.255-.212 0-.41.048-.595.144-.186.096-.361.227-.526.392v3.687h-1.225v-5.098h.749c.158 0 .262.075.312.224l.084.402c.103-.103.211-.198.325-.286.114-.087.235-.162.363-.223.127-.061.263-.11.409-.144.145-.035.304-.052.476-.052zm-6.166.939c-.43 0-.748.145-.955.434-.207.29-.31.708-.31 1.255 0 .547.103.963.31 1.25.207.286.525.429.955.429.423 0 .736-.142.94-.427.203-.285.305-.702.305-1.252s-.102-.969-.305-1.257c-.204-.288-.517-.432-.94-.432zm-6.871-1.884h-1.394v5.059h1.394c.351 0 .666-.058.945-.174.28-.116.518-.283.715-.5.196-.217.347-.482.451-.795.104-.313.156-.666.156-1.06 0-.395-.052-.748-.156-1.061-.104-.313-.255-.578-.451-.795-.197-.217-.435-.384-.715-.5-.279-.116-.594-.174-.945-.174zm18.107 1.824c-.354 0-.633.101-.836.303-.203.202-.333.489-.389.86h2.311c0-.159-.022-.309-.067-.45-.044-.141-.111-.264-.201-.37-.089-.106-.202-.19-.339-.251-.138-.061-.297-.092-.479-.092zm-234.152-35.183c2.74 0 4.961 2.224 4.961 4.968v14.906c0 2.745-2.221 4.969-4.961 4.969H75.1336c-2.7398 0-4.9608-2.224-4.9608-4.969v-14.906c0-2.744 2.221-4.968 4.9608-4.968h89.2934zm0 1.242H75.1336c-2.0548 0-3.7206 1.668-3.7206 3.726v14.906c0 2.059 1.6658 3.727 3.7206 3.727h89.2934c2.055 0 3.72-1.668 3.72-3.727v-14.906c0-2.058-1.665-3.726-3.72-3.726zM595 159.869v1.242h-45.321c-2.055 0-3.721 1.668-3.721 3.727v74.53c0 2.058 1.666 3.727 3.721 3.727H595v1.241l-45.321.001c-2.74 0-4.961-2.225-4.961-4.969v-74.53c0-2.745 2.221-4.969 4.961-4.969H595zm-549.6309 0c2.7398 0 4.9607 2.224 4.9607 4.969v74.53c0 2.744-2.2209 4.969-4.9607 4.969L0 244.336v-1.241h45.3691c2.0548 0 3.7206-1.669 3.7206-3.727v-74.53c0-2.059-1.6658-3.727-3.7206-3.727H0v-1.242h45.3691zm357.1739-17.391c2.739 0 4.96 2.225 4.96 4.969v74.531c0 2.744-2.221 4.968-4.96 4.968h-89.294c-2.74 0-4.961-2.224-4.961-4.968v-74.531c0-2.744 2.221-4.969 4.961-4.969h89.294zm0 1.243h-89.294c-2.055 0-3.72 1.668-3.72 3.726v74.531c0 2.058 1.665 3.726 3.72 3.726h89.294c2.054 0 3.72-1.668 3.72-3.726v-74.531c0-2.058-1.666-3.726-3.72-3.726zm-119.058-23.602c2.739 0 4.96 2.225 4.96 4.969v94.405c0 2.744-2.221 4.969-4.96 4.969h-89.294c-2.739 0-4.96-2.225-4.96-4.969v-94.405c0-2.744 2.221-4.969 4.96-4.969h89.294zm0 1.242h-89.294c-2.054 0-3.72 1.669-3.72 3.727v94.405c0 2.058 1.666 3.727 3.72 3.727h89.294c2.055 0 3.72-1.669 3.72-3.727v-94.405c0-2.058-1.665-3.727-3.72-3.727zM164.427 137.51c2.74 0 4.961 2.224 4.961 4.968v54.656c0 2.744-2.221 4.969-4.961 4.969H75.1336c-2.7398 0-4.9608-2.225-4.9608-4.969v-54.656c0-2.744 2.221-4.968 4.9608-4.968h89.2934zm0 1.242H75.1336c-2.0548 0-3.7206 1.668-3.7206 3.726v54.656c0 2.058 1.6658 3.727 3.7206 3.727h89.2934c2.055 0 3.72-1.669 3.72-3.727v-54.656c0-2.058-1.665-3.726-3.72-3.726zM521.6 75.401c2.74 0 4.961 2.2245 4.961 4.9687v94.4053c0 2.744-2.221 4.969-4.961 4.969h-89.293c-2.74 0-4.961-2.225-4.961-4.969V80.3697c0-2.7442 2.221-4.9687 4.961-4.9687H521.6zm0 1.2422h-89.293c-2.055 0-3.721 1.6684-3.721 3.7265v94.4053c0 2.058 1.666 3.727 3.721 3.727H521.6c2.055 0 3.721-1.669 3.721-3.727V80.3697c0-2.0581-1.666-3.7265-3.721-3.7265zM595 95.2754v1.2424l-45.321.0002c-2.055 0-3.721 1.6684-3.721 3.726v34.781c0 2.058 1.666 3.727 3.721 3.727H595v1.242h-45.321c-2.74 0-4.961-2.224-4.961-4.969v-34.781c0-2.7437 2.221-4.9682 4.961-4.9682L595 95.2754zm-549.6309.0004c2.7398 0 4.9607 2.2245 4.9607 4.9682v34.781c0 2.745-2.2209 4.969-4.9607 4.969H0v-1.242h45.3691c2.0548 0 3.7206-1.669 3.7206-3.727v-34.781c0-2.0576-1.6658-3.726-3.7206-3.726L0 96.5178v-1.2424l45.3691.0004zm357.1739 2.4843c2.739 0 4.96 2.2246 4.96 4.9689v14.906c0 2.744-2.221 4.969-4.96 4.969h-89.294c-2.74 0-4.961-2.225-4.961-4.969v-14.906c0-2.7443 2.221-4.9689 4.961-4.9689h89.294zm0 1.2422h-89.294c-2.055 0-3.72 1.6687-3.72 3.7267v14.906c0 2.058 1.665 3.726 3.72 3.726h89.294c2.054 0 3.72-1.668 3.72-3.726v-14.906c0-2.058-1.666-3.7267-3.72-3.7267zM164.427 33.167c2.74 0 4.961 2.2246 4.961 4.9687v74.5303c0 2.744-2.221 4.969-4.961 4.969H75.1336c-2.7398 0-4.9608-2.225-4.9608-4.969V38.1357c0-2.7441 2.221-4.9687 4.9608-4.9687h89.2934zm0 1.2422H75.1336c-2.0548 0-3.7206 1.6684-3.7206 3.7265v74.5303c0 2.058 1.6658 3.727 3.7206 3.727h89.2934c2.055 0 3.72-1.669 3.72-3.727V38.1357c0-2.0581-1.665-3.7265-3.72-3.7265zM30.1694 104.736c.377 0 .7201.061 1.0294.184.3092.123.5737.296.7937.522.2199.225.3894.5.5084.825.1191.324.1786.687.1786 1.088 0 .404-.0595.768-.1786 1.093-.119.324-.2885.601-.5084.83-.22.228-.4845.404-.7937.526-.3093.123-.6524.184-1.0294.184-.3803 0-.7259-.061-1.0368-.184-.3109-.122-.5763-.298-.7962-.526-.2199-.229-.3902-.506-.511-.83-.1207-.325-.181-.689-.181-1.093 0-.401.0603-.764.181-1.088.1208-.325.2911-.6.511-.825.2199-.226.4853-.399.7962-.522s.6565-.184 1.0368-.184zm11.2113 0c.3208 0 .6168.052.888.154.2711.103.5043.253.6994.45.1951.197.3481.439.4589.725.1108.287.1662.614.1662.982 0 .185-.0199.31-.0596.375-.0396.064-.1157.097-.2282.097h-3.15c.0198.261.0661.487.1389.678.0727.19.1686.348.2877.472.1191.124.2604.217.4241.278.1637.061.3448.092.5432.092.1985 0 .3696-.023.5135-.069.1438-.047.2695-.098.377-.155.1075-.056.2017-.107.2828-.154.081-.046.1595-.069.2356-.069.1025 0 .1786.038.2282.114l.3522.447c-.1356.159-.2877.293-.4564.4-.1687.108-.3448.194-.5283.259-.1836.064-.3704.11-.5606.136-.1901.027-.3745.04-.5531.04-.3539 0-.6829-.059-.9872-.176-.3042-.118-.5688-.292-.7937-.522-.2249-.23-.4018-.515-.5308-.855-.129-.339-.1935-.732-.1935-1.18 0-.347.0563-.675.1687-.981.1124-.306.2737-.573.4837-.8.21-.227.4663-.407.7689-.539.3026-.133.6441-.199 1.0244-.199zm-18.0819-2.007c.5457 0 1.0417.088 1.4882.266.4465.177.8284.424 1.1459.74.3175.316.5639.695.7392 1.135.1753.441.2629.925.2629 1.451 0 .527-.0876 1.011-.2629 1.451-.1753.441-.4217.82-.7392 1.138-.3175.318-.6994.565-1.1459.74-.4465.176-.9425.264-1.4882.264h-2.7334v-7.185h2.7334zm13.0368 2.007c.2778 0 .5242.047.7391.142.215.094.3944.227.5383.397.1439.171.253.375.3274.611.0744.237.1116.498.1116.783v3.245h-1.2253v-3.245c0-.311-.0711-.552-.2133-.723-.1422-.171-.3588-.256-.6499-.256-.2116 0-.41.048-.5952.144-.1852.096-.3605.227-.5259.393v3.687h-1.2253v-5.098h.7491c.1587 0 .2629.074.3125.223l.0843.403c.1026-.103.2109-.198.325-.286.1141-.088.2348-.162.3621-.224.1273-.061.2638-.109.4093-.144.1455-.034.3042-.052.4762-.052zm-6.1662.939c-.4299 0-.7482.145-.9549.435-.2067.29-.3101.708-.3101 1.255 0 .546.1034.963.3101 1.249.2067.287.525.43.9549.43.4233 0 .7367-.142.9401-.427.2034-.285.305-.702.305-1.252s-.1016-.969-.305-1.257c-.2034-.289-.5168-.433-.9401-.433zm-6.8706-1.883h-1.394v5.058h1.394c.3505 0 .6655-.058.945-.174.2795-.116.5176-.282.7143-.499.1968-.217.3473-.482.4515-.795.1041-.313.1562-.667.1562-1.061 0-.394-.0521-.748-.1562-1.061-.1042-.313-.2547-.578-.4515-.795-.1967-.217-.4348-.383-.7143-.499-.2795-.116-.5945-.174-.945-.174zm18.1067 1.824c-.3539 0-.6325.101-.8359.303-.2034.202-.3332.488-.3894.859h2.3117c0-.159-.0223-.309-.067-.449-.0446-.141-.1116-.265-.2009-.371-.0893-.106-.2026-.189-.3398-.25-.1373-.062-.2968-.092-.4787-.092zM283.485 75.401c2.739 0 4.96 2.2245 4.96 4.9687v14.9061c0 2.7441-2.221 4.9682-4.96 4.9682h-89.294c-2.739 0-4.96-2.2241-4.96-4.9682V80.3697c0-2.7442 2.221-4.9687 4.96-4.9687h89.294zm0 1.2422h-89.294c-2.054 0-3.72 1.6684-3.72 3.7265v14.9061c0 2.0581 1.666 3.7265 3.72 3.7265h89.294c2.055 0 3.72-1.6684 3.72-3.7265V80.3697c0-2.0581-1.665-3.7265-3.72-3.7265zm220.435 8.2182c.377 0 .72.0613 1.03.1838.309.1226.573.2965.793.5217.22.2253.39.5002.509.8248.119.3247.178.6874.178 1.0882 0 .4041-.059.7685-.178 1.0931s-.289.6012-.509.8298c-.22.2285-.484.4041-.793.5267-.31.1225-.653.1838-1.03.1838-.38 0-.726-.0613-1.037-.1838-.31-.1226-.576-.2982-.796-.5267-.22-.2286-.39-.5052-.511-.8298-.12-.3246-.181-.689-.181-1.0931 0-.4008.061-.7635.181-1.0882.121-.3246.291-.5995.511-.8248.22-.2252.486-.3991.796-.5217.311-.1225.657-.1838 1.037-.1838zm11.211 0c.321 0 .617.0513.888.154.272.1027.505.2526.7.4497.195.1971.348.4389.459.7254.111.2866.166.6137.166.9813 0 .1855-.02.3106-.06.3752-.039.0646-.115.0969-.228.0969h-3.15c.02.2617.066.4877.139.6782.073.1905.169.3478.288.472.119.1242.26.217.424.2783.164.0612.345.0919.543.0919.199 0 .37-.0232.514-.0696.143-.0464.269-.0977.377-.154.107-.0563.201-.1077.282-.154.081-.0464.16-.0696.236-.0696.103 0 .179.0381.228.1143l.352.4472c-.135.159-.287.2923-.456.4-.169.1076-.345.1937-.528.2583-.184.0646-.371.1102-.561.1367-.19.0265-.374.0397-.553.0397-.354 0-.683-.0588-.987-.1764-.304-.1176-.569-.2915-.794-.5217-.225-.2302-.402-.5151-.531-.8546s-.193-.7329-.193-1.1801c0-.3478.056-.6749.168-.9813.113-.3064.274-.5731.484-.8.21-.2269.467-.4066.769-.5391.303-.1325.644-.1987 1.024-.1987zm-5.045 0c.278 0 .525.0472.74.1416.214.0944.394.2269.538.3975.144.1706.253.3743.327.6111.075.2369.112.4977.112.7826v3.2446h-1.225v-3.2446c0-.3114-.072-.5523-.214-.7229-.142-.1706-.359-.2559-.65-.2559-.211 0-.41.048-.595.1441-.185.096-.36.2269-.526.3925v3.6868h-1.225v-5.0979h.749c.159 0 .263.0745.313.2236l.084.4024c.102-.1026.211-.1979.325-.2857.114-.0877.235-.1623.362-.2235.127-.0613.264-.1094.409-.1441.146-.0348.304-.0522.476-.0522zM497.05 82.854c.545 0 1.041.0886 1.488.2659.446.1772.828.424 1.146.7403.317.3163.564.6948.739 1.1353.175.4406.263.9242.263 1.4509 0 .5267-.088 1.0103-.263 1.4509-.175.4405-.422.8198-.739 1.1378-.318.318-.7.5648-1.146.7403-.447.1756-.943.2634-1.488.2634h-2.734V82.854h2.734zm6.87 2.9465c-.43 0-.748.1449-.955.4347-.206.2899-.31.7081-.31 1.2546 0 .5466.104.9631.31 1.2497.207.2865.525.4298.955.4298.424 0 .737-.1425.94-.4274.204-.2848.305-.7022.305-1.2521 0-.5498-.101-.9689-.305-1.257-.203-.2882-.516-.4323-.94-.4323zm-6.87-1.8832h-1.394v5.0582h1.394c.35 0 .665-.058.945-.1739.279-.116.517-.2824.714-.4994.197-.217.347-.4819.451-.795.105-.313.157-.6666.157-1.0608s-.052-.7478-.157-1.0608c-.104-.313-.254-.578-.451-.795-.197-.217-.435-.3834-.714-.4994-.28-.1159-.595-.1739-.945-.1739zm18.106 1.8236c-.354 0-.632.101-.836.303-.203.2021-.333.4886-.389.8596h2.312c0-.159-.023-.3089-.067-.4496-.045-.1408-.112-.2642-.201-.3702-.09-.106-.203-.1896-.34-.2509-.137-.0613-.297-.0919-.479-.0919zM402.543 53.0418c2.739 0 4.96 2.2246 4.96 4.9687v14.9061c0 2.7442-2.221 4.9687-4.96 4.9687h-89.294c-2.74 0-4.961-2.2245-4.961-4.9687V58.0105c0-2.7441 2.221-4.9687 4.961-4.9687h89.294zm0 1.2422h-89.294c-2.055 0-3.72 1.6684-3.72 3.7265v14.9061c0 2.0581 1.665 3.7266 3.72 3.7266h89.294c2.054 0 3.72-1.6685 3.72-3.7266V58.0105c0-2.0581-1.666-3.7265-3.72-3.7265zM595 10.8078v1.2416l-45.321.0007c-2.055 0-3.721 1.6684-3.721 3.7265v54.6557c0 2.0581 1.666 3.7265 3.721 3.7265L595 74.1585v1.2424l-45.321.0001c-2.74 0-4.961-2.2246-4.961-4.9687V15.7766c0-2.7441 2.221-4.9687 4.961-4.9687L595 10.8078zm-549.6309.0001c2.7398 0 4.9607 2.2246 4.9607 4.9687v54.6557c0 2.7441-2.2209 4.9687-4.9607 4.9687L0 75.4009v-1.2424l45.3691.0003c2.0548 0 3.7206-1.6684 3.7206-3.7265V15.7766c0-2.0581-1.6658-3.7265-3.7206-3.7265L0 12.0494v-1.2416l45.3691.0001zm238.1159 0c2.739 0 4.96 2.2246 4.96 4.9687v34.7809c0 2.7441-2.221 4.9687-4.96 4.9687h-89.294c-2.739 0-4.96-2.2246-4.96-4.9687V15.7766c0-2.7441 2.221-4.9687 4.96-4.9687h89.294zm238.115 0c2.74 0 4.961 2.2246 4.961 4.9687v34.7809c0 2.7441-2.221 4.9687-4.961 4.9687h-89.293c-2.74 0-4.961-2.2246-4.961-4.9687V15.7766c0-2.7441 2.221-4.9687 4.961-4.9687H521.6zm0 1.2422h-89.293c-2.055 0-3.721 1.6684-3.721 3.7265v34.7809c0 2.0581 1.666 3.7265 3.721 3.7265H521.6c2.055 0 3.721-1.6684 3.721-3.7265V15.7766c0-2.0581-1.666-3.7265-3.721-3.7265zm-238.115 0h-89.294c-2.054 0-3.72 1.6684-3.72 3.7265v34.7809c0 2.0581 1.666 3.7265 3.72 3.7265h89.294c2.055 0 3.72-1.6684 3.72-3.7265V15.7766c0-2.0581-1.665-3.7265-3.72-3.7265zM407.503 0v28.1983c0 2.7442-2.221 4.9687-4.96 4.9687h-89.294c-2.74 0-4.961-2.2245-4.961-4.9687V0h1.241v28.1983c0 2.0581 1.665 3.7266 3.72 3.7266h89.294c2.054 0 3.72-1.6685 3.72-3.7266V0h1.24zM268.285 20.2683c.377 0 .72.0613 1.029.1838.31.1226.574.2965.794.5218.22.2252.389.5001.509.8248.119.3246.178.6873.178 1.0881 0 .4041-.059.7685-.178 1.0931-.12.3246-.289.6012-.509.8298-.22.2285-.484.4041-.794.5267-.309.1225-.652.1838-1.029.1838-.38 0-.726-.0613-1.037-.1838-.311-.1226-.576-.2982-.796-.5267-.22-.2286-.39-.5052-.511-.8298s-.181-.689-.181-1.0931c0-.4008.06-.7635.181-1.0881.121-.3247.291-.5996.511-.8248.22-.2253.485-.3992.796-.5218.311-.1225.657-.1838 1.037-.1838zm11.211 0c.321 0 .617.0513.888.154s.505.2526.7.4497c.195.1971.348.4389.459.7254.11.2866.166.6137.166.9813 0 .1855-.02.3106-.06.3752-.039.0646-.116.0969-.228.0969h-3.15c.02.2617.066.4877.139.6782.073.1905.169.3478.288.472.119.1242.26.217.424.2783.163.0612.344.0919.543.0919.198 0 .37-.0232.513-.0696.144-.0463.27-.0977.377-.154.108-.0563.202-.1077.283-.154.081-.0464.16-.0696.236-.0696.102 0 .178.0381.228.1143l.352.4472c-.135.159-.288.2923-.456.3999-.169.1077-.345.1938-.529.2584-.183.0646-.37.1102-.56.1367-.19.0265-.375.0397-.553.0397-.354 0-.683-.0588-.987-.1764-.305-.1176-.569-.2915-.794-.5217-.225-.2302-.402-.5151-.531-.8546s-.193-.7329-.193-1.1801c0-.3478.056-.6749.168-.9813.113-.3064.274-.573.484-.8.21-.2269.466-.4066.769-.5391.302-.1325.644-.1987 1.024-.1987zm-5.045 0c.278 0 .524.0472.739.1416.215.0944.395.2269.539.3975.143.1706.253.3743.327.6111.074.2369.112.4977.112.7826v3.2446h-1.226v-3.2446c0-.3114-.071-.5523-.213-.7229-.142-.1706-.359-.2559-.65-.2559-.212 0-.41.048-.595.1441-.185.096-.361.2269-.526.3925v3.6868h-1.225v-5.0979h.749c.159 0 .263.0745.312.2236l.085.4025c.102-.1027.21-.198.325-.2857.114-.0878.234-.1624.362-.2236.127-.0613.263-.1094.409-.1441.145-.0348.304-.0522.476-.0522zm-13.037-2.0074c.546 0 1.042.0886 1.489.2659.446.1772.828.424 1.146.7403.317.3163.563.6948.739 1.1354.175.4405.263.9241.263 1.4508 0 .5267-.088 1.0103-.263 1.4509-.176.4405-.422.8198-.739 1.1378-.318.318-.7.5648-1.146.7403-.447.1756-.943.2634-1.489.2634h-2.733v-7.1848h2.733zm6.871 2.9465c-.43 0-.748.1449-.955.4347-.207.2899-.31.7081-.31 1.2546 0 .5466.103.9631.31 1.2497.207.2865.525.4298.955.4298.423 0 .737-.1425.94-.4274.203-.2848.305-.7022.305-1.2521 0-.5498-.102-.9689-.305-1.257-.203-.2882-.517-.4323-.94-.4323zm-6.871-1.8832h-1.394v5.0582h1.394c.351 0 .666-.058.945-.1739.28-.116.518-.2824.715-.4994.197-.2169.347-.4819.451-.795.104-.313.156-.6666.156-1.0608s-.052-.7478-.156-1.0608c-.104-.313-.254-.578-.451-.795-.197-.217-.435-.3834-.715-.4994-.279-.1159-.594-.1739-.945-.1739zm18.107 1.8236c-.354 0-.632.101-.836.303-.203.2021-.333.4886-.389.8596h2.311c0-.159-.022-.3089-.067-.4496-.044-.1408-.111-.2642-.2-.3702-.09-.106-.203-.1896-.34-.2509-.137-.0613-.297-.0919-.479-.0919zM169.387 0l.001 8.32354c0 2.74416-2.221 4.96866-4.961 4.96866H75.1336c-2.7398 0-4.9608-2.2245-4.9608-4.96866L70.1723 0h1.2403l.0004 8.32354c0 2.05806 1.6658 3.72656 3.7206 3.72656h89.2934c2.055 0 3.72-1.6685 3.72-3.72656V0h1.24z"/></svg>