<svg xmlns="http://www.w3.org/2000/svg" viewBox="0 0 360 62"><path fill-rule="evenodd" d="M147.563 24.1891c1.712-1.7888 3.611-3.2128 5.696-4.2723 2.085-1.0595 4.467-1.5892 7.146-1.5892 2.458 0 4.674.4815 6.649 1.4447 1.975.9632 3.659 2.346 5.054 4.1485 1.395 1.8025 2.465 3.9833 3.211 6.5426.745 2.5592 1.118 5.4349 1.118 8.6271 0 3.4399-.428 6.5633-1.284 9.3702-.856 2.807-2.078 5.2079-3.666 7.2031-1.588 1.9951-3.501 3.543-5.738 4.6438-2.237 1.1007-4.722 1.6511-7.457 1.6511-1.325 0-2.527-.1307-3.604-.3921-1.077-.2615-2.071-.6261-2.983-1.0939-.911-.4678-1.746-1.0388-2.506-1.713-.759-.6743-1.484-1.4241-2.175-2.2497l-.456 2.8482c-.165.7155-.448 1.2246-.849 1.5273-.4.3027-.946.454-1.636.454h-6.753V0h10.233v24.1891zM11.1438 26.6658h2.6099c1.0495 0 1.9195-.1445 2.6099-.4335.6905-.2889 1.2843-.7498 1.7814-1.3828L34.6743 4.00398c.6905-.88061 1.4155-1.49289 2.175-1.83688.7595-.34399 1.7192-.51598 2.8791-.51598h9.6111L29.1646 26.4594c-1.1876 1.5135-2.4166 2.5867-3.687 3.2197.9114.3302 1.733.7911 2.4649 1.3828.7318.5917 1.4292 1.3691 2.092 2.3322l20.7963 27.9454h-9.8181c-1.3257 0-2.313-.1857-2.9621-.5572-.649-.3715-1.1944-.915-1.6363-1.6305L19.4707 37.1092c-.5248-.743-1.1324-1.2659-1.8228-1.5686-.6905-.3027-1.6847-.4541-2.9828-.4541h-3.5213v26.253H0V1.65112h11.1438V26.6658zM77.634 43.2596c-2.9551.1376-5.4407.3922-7.4568.7637-2.0162.3715-3.6318.8462-4.847 1.4241-1.2152.5779-2.0851 1.2521-2.6099 2.0226-.5247.7705-.7871 1.6098-.7871 2.518 0 1.7887.5316 3.0683 1.5949 3.8389 1.0633.7705 2.4511 1.1557 4.1634 1.1557 2.099 0 3.9149-.3783 5.4477-1.1351 1.5328-.7568 3.031-1.9057 4.4948-3.4467v-7.1412zm-5.7998-25.0559c-6.8769 0-12.7594 2.229-17.6478 6.6871l1.8228 3.261c.3038.4953.7042.9287 1.2013 1.3002.4972.3716 1.1048.5573 1.8228.5573.8286 0 1.5811-.1926 2.2578-.5779.3866-.2201.7981-.456 1.2343-.7076l1.0235-.5927c.8285-.4815 1.7882-.915 2.8791-1.3002 1.0909-.3853 2.4649-.5779 4.122-.5779 2.2923 0 4.046.6811 5.2612 2.0433 1.2152 1.3621 1.8228 3.4604 1.8228 6.2949v2.4767c-3.2313.0826-6.1035.3233-8.6168.7224-2.5132.399-4.7157.915-6.6076 1.5479-1.8918.6329-3.4867 1.3759-4.7848 2.229-1.298.8531-2.3544 1.7612-3.1692 2.7244-.8147.9632-1.4016 1.9745-1.7606 3.034-.359 1.0594-.5386 2.1258-.5386 3.199 0 1.8988.3038 3.5637.9114 4.9947.6076 1.431 1.4638 2.628 2.5685 3.5912 1.1047.9632 2.4166 1.6855 3.9356 2.1671 1.519.4816 3.176.7224 4.9712.7224 1.519 0 2.9068-.1307 4.1634-.3922 1.2566-.2614 2.4373-.6398 3.542-1.1351 1.1047-.4954 2.168-1.1076 3.1899-1.8369 1.0219-.7292 2.0713-1.5754 3.1484-2.5386l.9114 3.0546c.3038.8806.7181 1.4654 1.2428 1.7543.5248.289 1.2705.4334 2.2371.4334h4.6398V34.5912c0-2.3942-.3521-4.5956-1.0564-6.6045-.7042-2.0089-1.733-3.7357-3.0863-5.1805-1.3533-1.4447-3.0103-2.573-4.9712-3.3848-1.9609-.8118-4.1841-1.2177-6.6698-1.2177zm31.6498 5.9853c.857-.853 1.761-1.6442 2.714-2.3735.953-.7292 1.961-1.3484 3.024-1.8575 1.063-.5091 2.203-.9081 3.418-1.197 1.215-.289 2.541-.4335 3.977-.4335 2.32 0 4.377.3922 6.172 1.1765 1.796.7843 3.294 1.885 4.495 3.3022 1.202 1.4173 2.113 3.1096 2.734 5.0773.622 1.9676.933 4.1347.933 6.5013v26.9547h-10.233V34.3848c0-2.5868-.594-4.5888-1.781-6.006-1.188-1.4172-2.997-2.1258-5.427-2.1258-1.768 0-3.425.399-4.971 1.197-1.547.7981-3.011 1.8851-4.392 3.261v30.6285H93.9148V18.988h6.2552c1.326 0 2.196.6192 2.61 1.8575l.704 3.3435zm47.869 29.1425c-1.367-.5779-2.63-1.5686-3.79-2.972V31.3714c1.325-1.6236 2.72-2.8826 4.184-3.7769 1.464-.8944 3.176-1.3416 5.137-1.3416 2.9 0 5.123 1.0389 6.669 3.1165 1.547 2.0777 2.32 5.4419 2.32 10.0926 0 2.5868-.234 4.8089-.704 6.6664-.469 1.8576-1.146 3.3848-2.03 4.5819-.884 1.1971-1.954 2.0777-3.21 2.6418-1.257.5642-2.672.8462-4.247.8462-1.519 0-2.962-.2889-4.329-.8668zm46.336-9.3082c2.016-.3715 4.502-.6261 7.457-.7637v7.1412c-1.464 1.541-2.962 2.6899-4.495 3.4467-1.533.7568-3.348 1.1351-5.447 1.1351-1.713 0-3.1-.3852-4.164-1.1557-1.063-.7706-1.595-2.0502-1.595-3.8389 0-.9082.263-1.7475.787-2.518.525-.7705 1.395-1.4447 2.61-2.0226 1.216-.5779 2.831-1.0526 4.847-1.4241zm-15.991-19.1325c4.889-4.4581 10.771-6.6871 17.648-6.6871 2.486 0 4.709.4059 6.67 1.2177 1.961.8118 3.618 1.9401 4.971 3.3848 1.354 1.4448 2.382 3.1716 3.087 5.1805.704 2.0089 1.056 4.2103 1.056 6.6045v26.7483h-4.64c-.966 0-1.712-.1444-2.237-.4334-.525-.2889-.939-.8737-1.243-1.7543l-.911-3.0546c-1.077.9632-2.127 1.8094-3.148 2.5386-1.022.7293-2.086 1.3415-3.19 1.8369-1.105.4953-2.286.8737-3.542 1.1351-1.257.2615-2.645.3922-4.164.3922-1.795 0-3.452-.2408-4.971-.7224-1.519-.4816-2.831-1.2039-3.936-2.1671-1.104-.9632-1.96-2.1602-2.568-3.5912-.608-1.431-.911-3.0959-.911-4.9947 0-1.0732.179-2.1396.538-3.199.359-1.0595.946-2.0708 1.761-3.034.815-.9632 1.871-1.8713 3.169-2.7244 1.298-.8531 2.893-1.5961 4.785-2.229 1.892-.6329 4.094-1.1489 6.607-1.5479 2.514-.3991 5.386-.6398 8.617-.7224v-2.4767c0-2.8345-.607-4.9328-1.823-6.2949-1.215-1.3622-2.969-2.0433-5.261-2.0433-1.657 0-3.031.1926-4.122.5779-1.091.3852-2.05.8187-2.879 1.3002l-1.023.5927c-.437.2516-.848.4875-1.235.7076-.676.3853-1.429.5779-2.258.5779-.718 0-1.325-.1857-1.822-.5573-.497-.3715-.898-.8049-1.202-1.3002l-1.823-3.261zm52.012-3.0753c-.953.7293-1.857 1.5205-2.713 2.3735l-.705-3.3435c-.414-1.2383-1.284-1.8575-2.61-1.8575h-6.255v42.3515h10.232V30.711c1.381-1.3759 2.845-2.4629 4.392-3.261 1.546-.798 3.203-1.197 4.971-1.197 2.43 0 4.239.7086 5.427 2.1258 1.187 1.4172 1.781 3.4192 1.781 6.006v26.9547h10.233V34.3848c0-2.3666-.311-4.5337-.932-6.5013-.622-1.9677-1.533-3.66-2.735-5.0773-1.201-1.4172-2.699-2.5179-4.494-3.3022-1.796-.7843-3.853-1.1765-6.173-1.1765-1.436 0-2.762.1445-3.977.4335-1.215.2889-2.354.6879-3.418 1.197-1.063.5091-2.071 1.1283-3.024 1.8575zm63.238 6.1299c-.304.3852-.6.6879-.89.9081-.29.2201-.712.3302-1.264.3302-.525 0-1.036-.1582-1.533-.4747l-.204-.1288c-.453-.2838-.979-.5986-1.577-.9444-.691-.399-1.512-.7568-2.465-1.0733-.953-.3164-2.133-.4747-3.542-.4747-1.795 0-3.369.3234-4.723.9701-1.353.6467-2.478 1.5754-3.376 2.7863-.898 1.2108-1.567 2.6762-2.009 4.3961-.442 1.72-.663 3.6669-.663 5.8409 0 2.2565.242 4.2654.725 6.0266.483 1.7612 1.181 3.2404 2.092 4.4374.911 1.1971 2.016 2.1052 3.314 2.7244 1.298.6192 2.762.9288 4.391.9288 1.63 0 2.949-.1995 3.957-.5986 1.008-.399 1.857-.8393 2.547-1.3209l.272-.1904c.578-.4078 1.088-.7847 1.531-1.1305.511-.399 1.084-.5985 1.719-.5985.828 0 1.45.3164 1.864.9494l2.941 3.715c-1.132 1.3209-2.361 2.4286-3.687 3.3229-1.325.8944-2.699 1.6099-4.122 2.1465-1.422.5366-2.886.915-4.391 1.1352-1.505.2201-3.003.3302-4.495.3302-2.623 0-5.095-.4885-7.415-1.4654-2.32-.9769-4.35-2.401-6.09-4.2723-1.74-1.8713-3.114-4.1622-4.122-6.8728-1.008-2.7107-1.512-5.7996-1.512-9.267 0-3.1097.449-5.9922 1.346-8.6478.898-2.6556 2.217-4.9534 3.957-6.8935 1.74-1.9401 3.894-3.4605 6.462-4.5612 2.569-1.1008 5.524-1.6512 8.866-1.6512 3.176 0 5.958.5091 8.347 1.5273 2.389 1.0182 4.536 2.4767 6.442 4.3755l-2.693 3.7151zm23.531-8.1731c-1.989.9632-3.812 2.2153-5.469 3.7563V0h-10.232v61.3395h10.232V30.7111c1.381-1.376 2.845-2.463 4.392-3.261 1.546-.7981 3.203-1.1971 4.971-1.1971 2.43 0 4.239.7086 5.427 2.1258 1.187 1.4173 1.781 3.4192 1.781 6.006v26.9547h10.233V34.3848c0-2.3666-.311-4.5337-.932-6.5013-.622-1.9676-1.533-3.66-2.735-5.0772-1.201-1.4173-2.699-2.518-4.495-3.3023-1.795-.7843-3.852-1.1764-6.172-1.1764-2.679 0-5.013.4815-7.001 1.4447zm38.113-.7842v42.3515h-10.274V18.9881h10.274zm.869-9.86562c.359-.77053.539-1.59609.539-2.47669 0-.90813-.18-1.76121-.539-2.55926-.359-.79805-.835-1.48601-1.429-2.06391-.594-.5779-1.291-1.038838-2.092-1.382826-.801-.343987-1.657-.515978-2.568-.515978-.884 0-1.72.171991-2.507.515978-.787.343988-1.47.804926-2.05 1.382826-.58.5779-1.043 1.26586-1.388 2.06391-.345.79805-.518 1.65113-.518 2.55926 0 .8806.173 1.70616.518 2.47669.345.77054.808 1.44472 1.388 2.02262.58.5779 1.263 1.0389 2.05 1.3828.787.344 1.623.516 2.507.516.911 0 1.767-.172 2.568-.516.801-.3439 1.498-.8049 2.092-1.3828.594-.5779 1.07-1.25208 1.429-2.02262z" clip-rule="evenodd"/></svg>