<svg xmlns="http://www.w3.org/2000/svg" width="72" height="76"><path fill="#ADB1B9" d="M46 66c0 5.523-4.477 10-10 10v-10h10z"/><path fill="#C1C5CA" d="M26 66c0 5.523 4.477 10 10 10v-10h-10z"/><path fill="#D6D8DB" d="M40.941 9.405c13.898 2.303 24.57 14.159 25.043 28.595h.016l1.486 23.033c.168-.022.34-.033.514-.033 2.209 0 4 1.791 4 4s-1.791 4-4 4h-64c-2.209 0-4-1.791-4-4s1.791-4 4-4c.174 0 .346.011.514.033l1.486-23.033h.016c.473-14.436 11.145-26.292 25.043-28.595-.668-.967-1.059-2.14-1.059-3.405 0-3.314 2.686-6 6-6s6 2.686 6 6c0 1.264-.391 2.438-1.059 3.405zm-4.941.595c2.209 0 4-1.791 4-4s-1.791-4-4-4-4 1.791-4 4 1.791 4 4 4z"/><path fill="#E2E3E5" d="M58.515 30.661l-.003.001c-2.426-6.548-7.627-11.748-14.174-14.174l.002-.006c-.591-.201-1.017-.761-1.017-1.42 0-.828.672-1.5 1.5-1.5.231 0 .45.052.645.145 7.28 2.726 13.068 8.505 15.807 15.779.079.183.123.384.123.596 0 .828-.672 1.5-1.5 1.5-.623 0-1.157-.379-1.384-.92z"/><path fill="#979DA6" d="M29 57c0-3.866 3.134-7 7-7s7 3.134 7 7h-14z"/><circle cx="26.5" cy="41.5" r="2.5" fill="#979DA6"/><circle cx="45.5" cy="41.5" r="2.5" fill="#979DA6"/></svg>