<svg width="24" height="24" xmlns="http://www.w3.org/2000/svg"><title>wallet</title><desc>Created with Sketch.</desc><g fill-rule="nonzero" fill="none"><path d="M1.005 7c0-1 .912-1.407 1.982-1.743l13.318-4.188c.936-.293 1.695.421 1.695 1.594v6.337h-16.995v-2z" id="Shape" fill="#87BBFD"/><path d="M19.7 23h-15.4c-1.823 0-3.3-1.427-3.3-3.188l.002-11.812v-1s-.002 1 1.498 1h17.2c1.823 0 3.3 1.552 3.3 3.312v8.5c0 1.76-1.477 3.188-3.3 3.188zm-.701-9.5c-.53 0-1.039.21-1.414.586-.375.375-.586.884-.586 1.415.001 1.105.896 2 1.999 1.999.53.001 1.039-.21 1.414-.584.375-.375.586-.884.587-1.415 0-.531-.211-1.041-.586-1.416s-.884-.586-1.415-.585z" fill="#6772E5"/></g></svg>